<?xml version="1.0" encoding="UTF-8"?>
<svg id="Layer_1" data-name="Layer 1" xmlns="http://www.w3.org/2000/svg" viewBox="0 0 392 78">
  <defs>
    <style>
      .cls-1 {
        fill: #0075c9;
      }

      .cls-2 {
        fill: #007ac2;
      }

      .cls-3 {
        fill: #6d6e71;
      }

      .cls-4 {
        fill: #808285;
      }
    </style>
  </defs>
  <path class="cls-1" d="M70.97,51.33c0,2.19,1.79,3.75,4.27,3.75,1.75,0,3.35-.84,4.81-2.22l-.03-.03-5.73-5.73c-2.31,1.02-3.32,2.57-3.32,4.23"/>
  <path class="cls-1" d="M79.9,38.92c0-1.79-1.2-2.92-2.92-2.92-1.82,0-3.03,1.28-3.03,3.1,0,1.31,.51,2.26,1.93,3.83,2.62-.95,4.01-2.12,4.01-4.01"/>
  <polygon class="cls-2" points="74.36 47.06 74.36 47.06 74.35 47.06 74.36 47.06"/>
  <path class="cls-1" d="M86.93,59.74l-4.3-4.3-.04,.04c-2.19,2.04-4.74,3.32-7.84,3.32-4.74,0-8.31-2.85-8.31-7.33,0-3.32,1.93-5.69,5.43-7.18-1.46-1.9-2.12-3.47-2.12-5.36,0-3.46,2.77-6.45,7.33-6.45,4.05,0,6.78,2.7,6.78,6.2s-2.23,5.4-5.62,6.67l1.69,1.71h6.98v12.68Zm35.14-6.17c-2.15,2.03-5.23,3.3-8.48,3.3-6.84,0-11.94-4.82-11.94-12.32s4.76-12.43,11.94-12.43c2.7,0,5.42,.93,7.49,2.51h9.84c-3.41-6.06-9.83-10.01-17.34-10.01-9.51,0-17.41,6.25-19.39,15.4V2H61.22V52.42c-.2-7.22-6.49-9.48-11.98-11.42-4.87-1.64-9.14-2.79-9.14-5.64,0-2.63,2.41-4.11,5.91-4.11,2.63,0,5.06,1.15,6.46,3.38h8.21c-1.78-5.82-7.32-10.01-14.39-10.01-8.1,0-14.02,5.09-14.02,11.06,0,6.68,5.58,8.98,10.18,10.62,5.42,1.97,10.84,3.18,10.84,6.84,0,2.47-2.35,4.44-6.18,4.44-3.49,0-6.2-1.69-7.68-4.01h-7.32c.02-.27,.05-.53,.05-.81,0-7.5-6.41-9.8-11.99-11.77-4.87-1.64-9.14-2.79-9.14-5.64,0-2.63,2.41-4.11,5.91-4.11,2.63,0,5.06,1.15,6.46,3.38h8.21c-1.78-5.82-7.33-10.01-14.39-10.01-8.1,0-14.02,5.09-14.02,11.06,0,6.68,5.59,8.98,10.19,10.62,5.42,1.97,10.84,3.18,10.84,6.84,0,2.47-2.35,4.44-6.19,4.44-3.49,0-6.2-1.69-7.68-4.01H2c2.21,6.62,7.65,10.91,15.47,10.91s13.02-3.65,14.35-9.07c2.55,5.56,7.67,9.07,14.73,9.07,8.69,0,14.56-4.8,14.66-11.55v19.06h32.97v-22.91c1.98,9.15,9.89,15.4,19.39,15.4,7.92,0,14.62-4.3,17.86-10.91h-9.38Z"/>
  <polygon class="cls-4" points="150.46 64.5 150.81 64.5 151.16 64.5 151.16 44.5 151.16 24.5 150.81 24.5 150.46 24.5 150.46 44.5 150.46 64.5"/>
  <g>
    <path class="cls-3" d="M270.61,35.64h2.54l.88,3.75h.28c2.7-2.87,5.57-4.3,8.66-4.3,6.29,0,10.7,5.46,10.7,14.95s-4.41,14.95-10.7,14.95c-3.09,0-5.96-1.38-8.66-4.25h-.28v14.24h-3.42V35.64Zm3.42,21.13c2.87,3.64,5.46,5.46,8.66,5.46,4.75,0,7.56-4.25,7.56-12.14s-2.81-12.14-7.56-12.14c-3.2,0-5.79,1.77-8.66,5.41v13.41Z"/>
    <path class="cls-3" d="M300.22,35.64h3.37v5.02h.33c1.99-3.81,4.52-5.52,8.28-5.52h.17v3.31h-.44c-4.03,0-6.68,2.32-8.33,7.78v18.26h-3.37v-28.86Z"/>
    <polygon class="cls-3" points="317.44 35.64 319.12 35.64 320.8 35.64 320.8 50.07 320.8 64.5 319.12 64.5 317.44 64.5 317.44 50.07 317.44 35.64"/>
    <path class="cls-3" d="M338.17,62.29c3.59,0,5.96-2.26,5.96-5.3,0-3.48-2.7-4.25-7.45-6.02-5.85-2.15-8.88-3.81-8.88-8.22s3.59-7.67,9.33-7.67c3.75,0,7.06,1.82,9.6,5.3l-2.43,1.77c-2.21-2.93-4.58-4.3-7.78-4.3s-5.19,1.93-5.19,4.75c0,3.09,2.81,3.81,7.61,5.63,5.74,2.15,8.66,3.92,8.66,8.5,0,4.8-3.86,8.28-9.82,8.28-4.53,0-8-1.82-10.87-5.68l2.54-2.04c2.48,3.31,5.35,5.02,8.72,5.02"/>
    <path class="cls-3" d="M353.81,35.64h3.14v4.47h.22c3.04-3.31,6.24-4.97,9.27-4.97,3.26,0,5.57,1.66,6.9,4.97h.39c3.15-3.31,6.18-4.97,9.27-4.97,4.86,0,7.28,3.09,7.28,9.27v20.08h-3.26v-18.87c0-5.07-.88-7.5-4.97-7.5-2.65,0-5.52,1.77-8.33,5.35v21.02h-3.31v-18.87c0-5.07-.88-7.5-4.97-7.5-2.65,0-5.46,1.77-8.33,5.35v21.02h-3.31v-28.86Z"/>
    <path class="cls-3" d="M175.31,24.5v14.23c1.77-2.37,4.19-3.59,7.06-3.59,6.95,0,11.59,5.52,11.59,14.73s-4.36,15.12-11.53,15.12c-3.2,0-5.74-1.21-7.73-3.81l-.83,3.31h-4.08c.28-2.87,.33-5.57,.33-8.11V24.5h5.19Zm6.29,36.14c4.41,0,7.01-3.59,7.01-10.37,0-7.12-2.54-10.76-7.17-10.76-2.26,0-4.25,1.16-6.12,3.47v14.07c1.88,2.37,3.92,3.59,6.29,3.59"/>
    <polygon class="cls-3" points="205.24 24.5 205.24 44.5 205.24 64.5 202.65 64.5 200.06 64.5 200.06 44.5 200.06 24.5 202.65 24.5 205.24 24.5"/>
    <path class="cls-3" d="M218.65,35.59v19.42c0,3.81,1.21,5.57,4.25,5.57,2.26,0,4.69-1.27,7.17-3.81v-21.19h5.24v28.91h-4.85v-3.92c-3.2,2.87-6.01,4.36-9.27,4.36-4.91,0-7.78-3.03-7.78-8.5v-20.86h5.24Z"/>
    <path class="cls-3" d="M246.48,50.98v.55c0,5.85,2.65,9.1,7.23,9.1,3.03,0,5.35-1.49,7.01-4.53l3.86,2.37c-2.37,4.3-6.18,6.56-11.15,6.56-7.89,0-12.25-5.13-12.25-14.68s4.41-15.28,11.92-15.28c6.9,0,11.31,5.24,11.31,14.4,0,.5-.06,.99-.06,1.49h-17.88Zm6.46-11.7c-3.81,0-6.18,2.7-6.4,7.67h12.53c-.11-4.91-2.48-7.67-6.13-7.67"/>
    <path class="cls-3" d="M386.57,24.53c2.04,0,3.7,1.66,3.7,3.7s-1.66,3.7-3.7,3.7-3.7-1.66-3.7-3.7,1.66-3.7,3.7-3.7m0,6.85c1.7,0,2.98-1.37,2.98-3.15s-1.28-3.15-2.98-3.15-3,1.37-3,3.15,1.28,3.15,3,3.15m-1.42-5.32h1.66c1,0,1.49,.4,1.49,1.22,0,.7-.44,1.2-1.12,1.2l1.23,1.92h-.75l-1.21-1.92h-.59v1.92h-.71v-4.34Zm.71,1.87h.84c.54,0,.89-.11,.89-.68,0-.49-.44-.64-.89-.64h-.84v1.31Z"/>
  </g>
</svg>